<mxfile host="app.diagrams.net" modified="2023-11-13T17:30:47.317Z" agent="Mozilla/5.0 (Windows NT 10.0; Win64; x64) AppleWebKit/537.36 (KHTML, like Gecko) Chrome/119.0.0.0 Safari/537.36 Edg/119.0.0.0" etag="YdFbC-HTOYUoI3niN_A1" version="22.1.0" type="device">
  <diagram name="Page-1" id="0783ab3e-0a74-02c8-0abd-f7b4e66b4bec">
    <mxGraphModel dx="1892" dy="535" grid="1" gridSize="10" guides="1" tooltips="1" connect="1" arrows="1" fold="1" page="1" pageScale="1" pageWidth="850" pageHeight="1100" background="none" math="0" shadow="0">
      <root>
        <mxCell id="0" />
        <mxCell id="1" parent="0" />
        <mxCell id="cUsYler12TiQLTutVpSO-1" value="" style="ellipse;whiteSpace=wrap;html=1;rounded=0;shadow=0;comic=0;labelBackgroundColor=none;strokeWidth=1;fillColor=#000000;fontFamily=Verdana;fontSize=12;align=center;" vertex="1" parent="1">
          <mxGeometry x="-40.000000000000114" y="260" width="40" height="40" as="geometry" />
        </mxCell>
        <mxCell id="cUsYler12TiQLTutVpSO-2" value="" style="shape=mxgraph.bpmn.shape;html=1;verticalLabelPosition=bottom;labelBackgroundColor=#ffffff;verticalAlign=top;perimeter=ellipsePerimeter;outline=end;symbol=terminate;rounded=0;shadow=0;comic=0;strokeWidth=1;fontFamily=Verdana;fontSize=12;align=center;" vertex="1" parent="1">
          <mxGeometry x="750" y="280" width="40" height="40" as="geometry" />
        </mxCell>
        <mxCell id="cUsYler12TiQLTutVpSO-3" value="Оплатить покупку билетов" style="rounded=1;whiteSpace=wrap;html=1;" vertex="1" parent="1">
          <mxGeometry x="30" y="250" width="120" height="60" as="geometry" />
        </mxCell>
        <mxCell id="cUsYler12TiQLTutVpSO-4" value="Исправление данных" style="rounded=1;whiteSpace=wrap;html=1;" vertex="1" parent="1">
          <mxGeometry x="290" y="140" width="120" height="60" as="geometry" />
        </mxCell>
        <mxCell id="cUsYler12TiQLTutVpSO-17" value="" style="edgeStyle=orthogonalEdgeStyle;rounded=0;orthogonalLoop=1;jettySize=auto;html=1;" edge="1" parent="1" source="cUsYler12TiQLTutVpSO-5" target="cUsYler12TiQLTutVpSO-3">
          <mxGeometry relative="1" as="geometry" />
        </mxCell>
        <mxCell id="cUsYler12TiQLTutVpSO-5" value="Проверка введенных данных" style="rhombus;whiteSpace=wrap;html=1;" vertex="1" parent="1">
          <mxGeometry x="200" y="245" width="130" height="70" as="geometry" />
        </mxCell>
        <mxCell id="cUsYler12TiQLTutVpSO-6" value="Неверные" style="text;html=1;strokeColor=none;fillColor=none;align=center;verticalAlign=middle;whiteSpace=wrap;rounded=0;" vertex="1" parent="1">
          <mxGeometry x="270" y="215" width="60" height="30" as="geometry" />
        </mxCell>
        <mxCell id="cUsYler12TiQLTutVpSO-7" value="Списание средств" style="rounded=1;whiteSpace=wrap;html=1;" vertex="1" parent="1">
          <mxGeometry x="290" y="350" width="120" height="60" as="geometry" />
        </mxCell>
        <mxCell id="cUsYler12TiQLTutVpSO-8" value="Верные" style="text;html=1;strokeColor=none;fillColor=none;align=center;verticalAlign=middle;whiteSpace=wrap;rounded=0;" vertex="1" parent="1">
          <mxGeometry x="290" y="315" width="60" height="30" as="geometry" />
        </mxCell>
        <mxCell id="cUsYler12TiQLTutVpSO-9" value="успешно" style="rhombus;whiteSpace=wrap;html=1;" vertex="1" parent="1">
          <mxGeometry x="450" y="355" width="80" height="50" as="geometry" />
        </mxCell>
        <mxCell id="cUsYler12TiQLTutVpSO-10" value="Нет" style="text;html=1;strokeColor=none;fillColor=none;align=center;verticalAlign=middle;whiteSpace=wrap;rounded=0;" vertex="1" parent="1">
          <mxGeometry x="430" y="440" width="60" height="30" as="geometry" />
        </mxCell>
        <mxCell id="cUsYler12TiQLTutVpSO-11" value="Да" style="text;html=1;strokeColor=none;fillColor=none;align=center;verticalAlign=middle;whiteSpace=wrap;rounded=0;" vertex="1" parent="1">
          <mxGeometry x="490" y="310" width="60" height="30" as="geometry" />
        </mxCell>
        <mxCell id="cUsYler12TiQLTutVpSO-13" value="Выдача билетов" style="rounded=1;whiteSpace=wrap;html=1;" vertex="1" parent="1">
          <mxGeometry x="560" y="270" width="120" height="60" as="geometry" />
        </mxCell>
        <mxCell id="cUsYler12TiQLTutVpSO-14" value="Повторить попытку" style="rounded=1;whiteSpace=wrap;html=1;" vertex="1" parent="1">
          <mxGeometry x="185" y="460" width="120" height="60" as="geometry" />
        </mxCell>
        <mxCell id="cUsYler12TiQLTutVpSO-15" style="edgeStyle=orthogonalEdgeStyle;rounded=0;html=1;labelBackgroundColor=none;startArrow=none;startFill=0;startSize=5;endArrow=classicThin;endFill=1;endSize=5;jettySize=auto;orthogonalLoop=1;strokeWidth=1;fontFamily=Verdana;fontSize=12;entryX=0;entryY=0.5;entryDx=0;entryDy=0;" edge="1" parent="1" source="cUsYler12TiQLTutVpSO-1" target="cUsYler12TiQLTutVpSO-3">
          <mxGeometry relative="1" as="geometry">
            <mxPoint x="-39.999952740965" y="199.95652173913038" as="sourcePoint" />
            <mxPoint x="206.000047259035" y="249.95652173913038" as="targetPoint" />
          </mxGeometry>
        </mxCell>
        <mxCell id="cUsYler12TiQLTutVpSO-16" style="edgeStyle=orthogonalEdgeStyle;rounded=0;html=1;labelBackgroundColor=none;startArrow=none;startFill=0;startSize=5;endArrow=classicThin;endFill=1;endSize=5;jettySize=auto;orthogonalLoop=1;strokeWidth=1;fontFamily=Verdana;fontSize=12;exitX=1;exitY=0.5;exitDx=0;exitDy=0;entryX=0;entryY=0.5;entryDx=0;entryDy=0;" edge="1" parent="1" source="cUsYler12TiQLTutVpSO-3" target="cUsYler12TiQLTutVpSO-5">
          <mxGeometry relative="1" as="geometry">
            <mxPoint x="300.000047259035" y="339.9565217391304" as="sourcePoint" />
            <mxPoint x="190" y="280" as="targetPoint" />
          </mxGeometry>
        </mxCell>
        <mxCell id="cUsYler12TiQLTutVpSO-18" style="edgeStyle=orthogonalEdgeStyle;rounded=0;html=1;labelBackgroundColor=none;startArrow=none;startFill=0;startSize=5;endArrow=classicThin;endFill=1;endSize=5;jettySize=auto;orthogonalLoop=1;strokeWidth=1;fontFamily=Verdana;fontSize=12;exitX=0.5;exitY=0;exitDx=0;exitDy=0;" edge="1" parent="1" source="cUsYler12TiQLTutVpSO-4">
          <mxGeometry relative="1" as="geometry">
            <mxPoint x="356.750047259035" y="249.9965217391304" as="sourcePoint" />
            <mxPoint x="200" y="280" as="targetPoint" />
          </mxGeometry>
        </mxCell>
        <mxCell id="cUsYler12TiQLTutVpSO-19" style="edgeStyle=orthogonalEdgeStyle;rounded=0;html=1;labelBackgroundColor=none;startArrow=none;startFill=0;startSize=5;endArrow=classicThin;endFill=1;endSize=5;jettySize=auto;orthogonalLoop=1;strokeWidth=1;fontFamily=Verdana;fontSize=12;exitX=0.5;exitY=0;exitDx=0;exitDy=0;entryX=0;entryY=0.5;entryDx=0;entryDy=0;" edge="1" parent="1" source="cUsYler12TiQLTutVpSO-5" target="cUsYler12TiQLTutVpSO-4">
          <mxGeometry relative="1" as="geometry">
            <mxPoint x="300.000047259035" y="339.9565217391304" as="sourcePoint" />
            <mxPoint x="430" y="260" as="targetPoint" />
          </mxGeometry>
        </mxCell>
        <mxCell id="cUsYler12TiQLTutVpSO-20" style="edgeStyle=orthogonalEdgeStyle;rounded=0;html=1;labelBackgroundColor=none;startArrow=none;startFill=0;startSize=5;endArrow=classicThin;endFill=1;endSize=5;jettySize=auto;orthogonalLoop=1;strokeWidth=1;fontFamily=Verdana;fontSize=12;exitX=0.5;exitY=1;exitDx=0;exitDy=0;entryX=0;entryY=0.5;entryDx=0;entryDy=0;" edge="1" parent="1" source="cUsYler12TiQLTutVpSO-5" target="cUsYler12TiQLTutVpSO-7">
          <mxGeometry relative="1" as="geometry">
            <mxPoint x="300.000047259035" y="339.9565217391304" as="sourcePoint" />
            <mxPoint x="546.000047259035" y="389.9565217391304" as="targetPoint" />
          </mxGeometry>
        </mxCell>
        <mxCell id="cUsYler12TiQLTutVpSO-21" style="edgeStyle=orthogonalEdgeStyle;rounded=0;html=1;labelBackgroundColor=none;startArrow=none;startFill=0;startSize=5;endArrow=classicThin;endFill=1;endSize=5;jettySize=auto;orthogonalLoop=1;strokeWidth=1;fontFamily=Verdana;fontSize=12;exitX=0.5;exitY=0;exitDx=0;exitDy=0;entryX=0;entryY=0.5;entryDx=0;entryDy=0;" edge="1" parent="1" source="cUsYler12TiQLTutVpSO-9" target="cUsYler12TiQLTutVpSO-13">
          <mxGeometry relative="1" as="geometry">
            <mxPoint x="300.000047259035" y="339.9565217391304" as="sourcePoint" />
            <mxPoint x="546.000047259035" y="389.9565217391304" as="targetPoint" />
          </mxGeometry>
        </mxCell>
        <mxCell id="cUsYler12TiQLTutVpSO-22" style="edgeStyle=orthogonalEdgeStyle;rounded=0;html=1;labelBackgroundColor=none;startArrow=none;startFill=0;startSize=5;endArrow=classicThin;endFill=1;endSize=5;jettySize=auto;orthogonalLoop=1;strokeWidth=1;fontFamily=Verdana;fontSize=12;exitX=1;exitY=0.5;exitDx=0;exitDy=0;entryX=0;entryY=0.5;entryDx=0;entryDy=0;" edge="1" parent="1" source="cUsYler12TiQLTutVpSO-7" target="cUsYler12TiQLTutVpSO-9">
          <mxGeometry relative="1" as="geometry">
            <mxPoint x="300.000047259035" y="339.9565217391304" as="sourcePoint" />
            <mxPoint x="546.000047259035" y="389.9565217391304" as="targetPoint" />
          </mxGeometry>
        </mxCell>
        <mxCell id="cUsYler12TiQLTutVpSO-23" style="edgeStyle=orthogonalEdgeStyle;rounded=0;html=1;labelBackgroundColor=none;startArrow=none;startFill=0;startSize=5;endArrow=classicThin;endFill=1;endSize=5;jettySize=auto;orthogonalLoop=1;strokeWidth=1;fontFamily=Verdana;fontSize=12;exitX=1;exitY=0.5;exitDx=0;exitDy=0;entryX=0;entryY=0.5;entryDx=0;entryDy=0;" edge="1" parent="1" source="cUsYler12TiQLTutVpSO-13" target="cUsYler12TiQLTutVpSO-2">
          <mxGeometry relative="1" as="geometry">
            <mxPoint x="604.000047259035" y="419.9965217391304" as="sourcePoint" />
            <mxPoint x="850.000047259035" y="469.9965217391304" as="targetPoint" />
          </mxGeometry>
        </mxCell>
        <mxCell id="cUsYler12TiQLTutVpSO-24" style="edgeStyle=orthogonalEdgeStyle;rounded=0;html=1;labelBackgroundColor=none;startArrow=none;startFill=0;startSize=5;endArrow=classicThin;endFill=1;endSize=5;jettySize=auto;orthogonalLoop=1;strokeWidth=1;fontFamily=Verdana;fontSize=12;exitX=0;exitY=0.5;exitDx=0;exitDy=0;entryX=0.5;entryY=1;entryDx=0;entryDy=0;" edge="1" parent="1" source="cUsYler12TiQLTutVpSO-14" target="cUsYler12TiQLTutVpSO-3">
          <mxGeometry relative="1" as="geometry">
            <mxPoint x="510.000047259035" y="459.9965217391304" as="sourcePoint" />
            <mxPoint x="30" y="280" as="targetPoint" />
          </mxGeometry>
        </mxCell>
        <mxCell id="cUsYler12TiQLTutVpSO-25" style="edgeStyle=orthogonalEdgeStyle;rounded=0;html=1;labelBackgroundColor=none;startArrow=none;startFill=0;startSize=5;endArrow=classicThin;endFill=1;endSize=5;jettySize=auto;orthogonalLoop=1;strokeWidth=1;fontFamily=Verdana;fontSize=12;exitX=0.5;exitY=1;exitDx=0;exitDy=0;entryX=1;entryY=0.5;entryDx=0;entryDy=0;" edge="1" parent="1" source="cUsYler12TiQLTutVpSO-9" target="cUsYler12TiQLTutVpSO-14">
          <mxGeometry relative="1" as="geometry">
            <mxPoint x="500" y="465.04" as="sourcePoint" />
            <mxPoint x="556.000047259035" y="449.9965217391304" as="targetPoint" />
          </mxGeometry>
        </mxCell>
      </root>
    </mxGraphModel>
  </diagram>
</mxfile>
